{"asset":{"version":"2.0","generator":"Novus Worlds"},"buffers":[{"byteLength":1296,"uri":"data:application/octet-stream;base64,"}],"bufferViews":[{"buffer":0,"byteOffset":0,"byteLength":288},{"buffer":0,"byteOffset":288,"byteLength":288},{"buffer":0,"byteOffset":576,"byteLength":72},{"buffer":0,"byteOffset":648,"byteLength":288},{"buffer":0,"byteOffset":936,"byteLength":288},{"buffer":0,"byteOffset":1224,"byteLength":72}],"accessors":[{"bufferView":0,"componentType":5126,"count":24,"type":"VEC3","min":[-0.85,-0.06,-0.66],"max":[0.85,0.06,0.66]},{"bufferView":1,"componentType":5126,"count":24,"type":"VEC3","min":[-1,-1,-1],"max":[1,1,1]},{"bufferView":2,"componentType":5123,"count":36,"type":"SCALAR","min":[0],"max":[23]},{"bufferView":3,"componentType":5126,"count":24,"type":"VEC3","min":[-0.59,0.06,-0.51],"max":[0.59,0.4,0.51]},{"bufferView":4,"componentType":5126,"count":24,"type":"VEC3","min":[-1,-1,-1],"max":[1,1,1]},{"bufferView":5,"componentType":5123,"count":36,"type":"SCALAR","min":[0],"max":[23]}],"materials":[{"name":"Classic Dark Hat","pbrMetallicRoughness":{"baseColorFactor":[0.03,0.035,0.045,1],"roughnessFactor":0.6}}],"meshes":[{"name":"VisorBrim","primitives":[{"attributes":{"POSITION":0,"NORMAL":1},"indices":2,"material":0}]},{"name":"VisorCrown","primitives":[{"attributes":{"POSITION":3,"NORMAL":4},"indices":5,"material":0}]}],"nodes":[{"name":"VisorBrim","mesh":0,"translation":[0,0,0]},{"name":"VisorCrown","mesh":1,"translation":[0,0,0]}],"scenes":[{"nodes":[0,1]}],"scene":0}